<svg width="56" height="56" viewBox="0 0 56 56" fill="none" xmlns="http://www.w3.org/2000/svg">
<path d="M22.1771 9.3175L4.89069 39.184C4.3067 40.1943 3.99951 41.34 4 42.5061C4.00049 43.6722 4.3086 44.8176 4.89343 45.8274C5.47826 46.8371 6.31918 47.6756 7.33177 48.2586C8.34435 48.8417 9.49296 49.1487 10.6622 49.1488H45.2349C46.4041 49.1487 47.5528 48.8417 48.5653 48.2586C49.5779 47.6756 50.4188 46.8371 51.0037 45.8274C51.5885 44.8176 51.8966 43.6722 51.8971 42.5061C51.8976 41.34 51.5904 40.1943 51.0064 39.184L33.72 9.3175C33.1339 8.30856 32.2922 7.47099 31.2793 6.88874C30.2663 6.30648 29.1177 6 27.9486 6C26.7794 6 25.6308 6.30648 24.6178 6.88874C23.6049 7.47099 22.7632 8.30856 22.1771 9.3175Z" stroke="#8E8E8E" stroke-width="4" stroke-miterlimit="10"/>
<path d="M27.8231 35.5917C27.2681 35.5904 26.7349 35.3756 26.3347 34.9921C25.9345 34.6086 25.6981 34.0859 25.6746 33.5329L25.0918 19.8146C25.0795 19.5247 25.1261 19.2353 25.2289 18.9639C25.3317 18.6925 25.4885 18.4446 25.6899 18.2352C25.8913 18.0259 26.1332 17.8593 26.4008 17.7456C26.6685 17.6319 26.9564 17.5735 27.2474 17.5737H28.6516C28.9453 17.5742 29.2359 17.6344 29.5055 17.7506C29.7752 17.8668 30.0182 18.0365 30.2199 18.2495C30.4216 18.4625 30.5778 18.7142 30.6787 18.9893C30.7797 19.2644 30.8233 19.5571 30.8071 19.8496L29.9716 33.5679C29.9394 34.1147 29.6991 34.6287 29.2998 35.0048C28.9005 35.3809 28.3723 35.5908 27.8231 35.5917Z" fill="#8E8E8E"/>
<path d="M27.9498 42.8529C29.5552 42.8529 30.8566 41.5549 30.8566 39.9538C30.8566 38.3527 29.5552 37.0547 27.9498 37.0547C26.3444 37.0547 25.043 38.3527 25.043 39.9538C25.043 41.5549 26.3444 42.8529 27.9498 42.8529Z" fill="#8E8E8E"/>
</svg>
