<svg width="206" height="148" viewBox="0 0 206 148" fill="none" xmlns="http://www.w3.org/2000/svg">
<g clip-path="url(#clip0_71_4271)">
<path d="M191.01 14.0172L178.428 55.5345L184.303 71.6207L206 0L132.799 17.1207L148.586 23.9483L191.01 14.0172Z" fill="#9E28B5"/>
<path d="M31.3315 56.5862H22.2333V62.9827H0.207031V68.7931H53.479V62.9827H31.3315V56.5862Z" fill="#202E3E"/>
<path d="M57.0508 79.3965H79.0597V98.7241H88.1579V79.3965H110.305V73.5862H57.0508V79.3965Z" fill="#202E3E"/>
<path d="M104.205 62.9828H71.9888V56.638H104.205V39.3276H62.8906V45.138H95.1068V50.8276H62.8906V68.7932H104.205V62.9828Z" fill="#202E3E"/>
<path d="M126.872 39.0688H117.773V70.362V74.7757V79.3102H122.314H123.891H152.017V73.4826H126.872V39.0688Z" fill="#202E3E"/>
<path d="M155.449 37.7759V73.4828H155.432V79.3104H155.449V99.4311H164.53V37.7759H155.449Z" fill="#202E3E"/>
<path d="M15.0259 89.1724H47.8313V88.5V83.6896V79.1034V75.862V73.5862H5.92773V79.1034H38.7331V83.6896H5.92773V85.0345V89.1724V93.6034V97.6724V99.431H49.1311V93.6034H15.0259V89.1724Z" fill="#202E3E"/>
<path d="M26.8445 34.2932L2.35742 56.638H13.7605L26.8445 44.7242L39.9112 56.638H51.3316L26.8445 34.2932Z" fill="#202E3E"/>
<path d="M0 132.328V128.241H14.1758V124.948H5.49356V111.362H27.8144V115.397H10.3806V120.862H27.8144V124.948H19.0628V128.241H33.1867V132.328H0ZM22.8061 147.931V139.103H4.97367V135.103H27.7451V147.931H22.8061Z" fill="#73878E"/>
<path d="M34.5039 121.552V117.552H52.371V121.552H34.5039ZM44.0873 137.121C39.8242 137.121 36.2889 134.19 36.2889 129.914C36.2889 125.638 39.8242 122.793 44.0873 122.793C48.3505 122.793 51.7644 125.603 51.7644 129.914C51.7644 134.224 48.5411 137.121 44.0873 137.121ZM39.079 115.621V111.586H48.1078V115.621H39.079ZM44.0873 126.741C41.9731 126.741 40.708 128.172 40.708 129.914C40.708 131.776 41.9731 133.121 44.0873 133.121C45.9936 133.121 47.3107 131.776 47.3107 129.914C47.3107 128.172 45.9936 126.741 44.0873 126.741ZM61.6771 143.379V126.155H58.731V142.034H53.948V111.224H58.731V122.155H61.6771V110.759H66.4602V143.379H61.6771Z" fill="#73878E"/>
<path d="M69.6309 139.603V135.569H102.818V139.603H69.6309ZM79.3876 123.758V127.086H97.8612V131.172H74.8125V112.241H97.6532V116.276H79.3876V119.689H97.1853V123.776H79.3876V123.758Z" fill="#73878E"/>
<path d="M121.083 133.276C117.062 134.189 109.229 134.345 105.33 134.069V121.121H113.96V116.758H105.33V112.638H118.83V125.069H110.2V130.017C112.903 130.138 117.6 129.931 120.667 129.224L121.1 133.258L121.083 133.276ZM124.15 142.103V124.448H120.528V120.414H124.15V111.224H128.847V142.103H124.15ZM131.273 110.741H136.056V143.448H131.273V110.741Z" fill="#73878E"/>
<path d="M150.146 112.793C156.004 112.793 160.18 116.828 160.18 122.931C160.18 129.034 156.004 133.034 150.146 133.034C144.289 133.034 140.164 129 140.164 122.931C140.164 116.862 144.375 112.793 150.146 112.793ZM150.146 128.707C153.127 128.707 155.276 126.483 155.276 122.879C155.276 119.276 153.127 117.052 150.146 117.052C147.165 117.052 145.016 119.31 145.016 122.879C145.016 126.448 147.2 128.707 150.146 128.707ZM165.223 110.724H170.041V143.397H165.223V110.724Z" fill="#73878E"/>
<path d="M196.694 127.879C191.408 129.034 182.761 129.379 176.158 129.19V112.362H181.011V124.759C185.464 124.914 191.911 124.483 196.382 123.603L196.694 127.879ZM194.666 148C188.896 148 184.754 144.672 184.754 139.638C184.754 134.603 188.896 131.241 194.666 131.241C200.437 131.241 204.545 134.81 204.545 139.638C204.545 144.465 200.403 148 194.666 148ZM194.666 135.293C191.72 135.293 189.537 137.069 189.537 139.655C189.537 142.241 191.72 143.965 194.666 143.965C197.613 143.965 199.761 142.224 199.761 139.655C199.761 137.086 197.613 135.293 194.666 135.293ZM200.403 131.103V110.707H205.29V131.103H200.403Z" fill="#73878E"/>
</g>
<defs>
<clipPath id="clip0_71_4271">
<rect width="206" height="148" fill="white"/>
</clipPath>
</defs>
</svg>
