<svg width="472" height="100" viewBox="0 0 472 100" fill="none" xmlns="http://www.w3.org/2000/svg">
<g clip-path="url(#clip0_71_4253)">
<path d="M190.819 14.1064L178.253 55.85L184.126 72.0488L205.824 0L132.609 17.2276L148.399 24.0802L190.819 14.1064Z" fill="#9E28B5"/>
<path d="M31.1088 56.9136H22.0289V63.3478H0V69.1891H53.2771V63.3478H31.1088V56.9136Z" fill="#202E3E"/>
<path d="M56.832 79.8605H78.8609V99.2851H87.9583V79.8605H110.109V74.0017H56.832V79.8605Z" fill="#202E3E"/>
<path d="M103.992 63.3479H71.7849V56.966H103.992V39.5466H62.6875V45.4054H94.9117V51.1247H62.6875V69.1892H103.992V63.3479Z" fill="#202E3E"/>
<path d="M126.666 39.2852H117.568V70.776V75.2224V79.7734H122.117H123.686H151.814V73.9146H126.666V39.2852Z" fill="#202E3E"/>
<path d="M155.248 37.9946V73.9144V79.7732V99.9999H164.345V37.9946H155.248Z" fill="#202E3E"/>
<path d="M14.8142 89.6948H47.6135V89.0148V84.1674V79.564V76.3034V74.0017H5.7168V79.564H38.5161V84.1674H5.7168V85.5274V89.6948V94.1586V98.2389V100H48.9206V94.1586H14.8142V89.6948Z" fill="#202E3E"/>
<path d="M26.6307 45.6146L39.7017 57.6111H51.1344L32.3471 40.3662L26.6307 35.1177L20.9144 40.3662L2.14453 57.6111H13.5598L26.6307 45.6146Z" fill="#202E3E"/>
<path d="M205.824 79.3722V74.054H224.193V69.7645H212.952V52.0662H241.9V57.3321H219.296V64.4463H241.9V69.7645H230.554V74.054H248.871V79.3722H205.842H205.824ZM235.382 99.7035V88.1952H212.273V82.9816H241.778V99.7035H235.382Z" fill="#73878E"/>
<path d="M250.562 65.3356V60.122H273.724V65.3356H250.562ZM262.989 85.6146C257.464 85.6146 252.88 81.7959 252.88 76.2162C252.88 70.6364 257.464 66.9224 262.989 66.9224C268.513 66.9224 272.94 70.5841 272.94 76.2162C272.94 81.8483 268.757 85.6146 262.989 85.6146ZM256.488 57.5937V52.3278H268.2V57.5937H256.488ZM262.989 72.1011C260.252 72.1011 258.597 73.9668 258.597 76.2336C258.597 78.6573 260.252 80.4184 262.989 80.4184C265.463 80.4184 267.171 78.6573 267.171 76.2336C267.171 73.9668 265.463 72.1011 262.989 72.1011ZM285.784 93.775V71.3164H281.968V92.0139H275.781V51.857H281.968V66.1028H285.784V51.2292H291.971V93.7576H285.784V93.775Z" fill="#73878E"/>
<path d="M296.119 88.8753V83.6094H339.149V88.8753H296.119ZM308.754 68.2301V72.5719H332.7V77.8901H302.829V53.217H332.439V58.483H308.754V62.9293H331.811V68.2476H308.754V68.2301Z" fill="#73878E"/>
<path d="M362.832 80.6104C357.621 81.7961 347.46 82.0053 342.406 81.6392V64.7603H353.595V59.0759H342.406V53.7054H359.886V69.9042H348.698V76.3558C352.201 76.5127 358.3 76.2512 362.274 75.327L362.849 80.5929L362.832 80.6104ZM366.805 92.1187V69.1021H362.117V63.8362H366.805V51.8571H372.888V92.1187H366.805ZM376.042 51.2468H382.229V93.8798H376.042V51.2468Z" fill="#73878E"/>
<path d="M400.494 53.9145C408.075 53.9145 413.495 59.1804 413.495 67.1316C413.495 75.0828 408.075 80.2964 400.494 80.2964C392.913 80.2964 387.545 75.0305 387.545 67.1316C387.545 59.2327 393.017 53.9145 400.494 53.9145ZM400.494 74.6643C404.363 74.6643 407.151 71.7698 407.151 67.0793C407.151 62.3888 404.363 59.4943 400.494 59.4943C396.625 59.4943 393.836 62.4411 393.836 67.0793C393.836 71.7175 396.677 74.6643 400.494 74.6643ZM420.048 51.2292H426.287V93.8099H420.048V51.2467V51.2292Z" fill="#73878E"/>
<path d="M460.864 73.5833C453.998 75.0828 442.809 75.5362 434.252 75.2921V53.3566H440.543V69.5205C446.329 69.7297 454.677 69.1543 460.464 68.0209L460.882 73.6007L460.864 73.5833ZM458.233 99.8082C450.756 99.8082 445.388 95.4665 445.388 88.9102C445.388 82.354 450.756 77.9599 458.233 77.9599C465.709 77.9599 471.025 82.5981 471.025 88.9102C471.025 95.2223 465.657 99.8082 458.233 99.8082ZM458.233 83.2433C454.416 83.2433 451.575 85.5624 451.575 88.9277C451.575 92.293 454.416 94.5597 458.233 94.5597C462.049 94.5597 464.838 92.293 464.838 88.9277C464.838 85.5624 462.049 83.2433 458.233 83.2433ZM465.657 77.7681V51.177H472.001V77.7681H465.657Z" fill="#73878E"/>
</g>
<defs>
<clipPath id="clip0_71_4253">
<rect width="472" height="100" fill="white"/>
</clipPath>
</defs>
</svg>
