<svg width="20" height="20" viewBox="0 0 20 20" fill="none" xmlns="http://www.w3.org/2000/svg">
<path fill-rule="evenodd" clip-rule="evenodd" d="M6.07143 0C5.47969 0 5 0.488417 5 1.09091V1.81818H2.85714C1.27919 1.81818 0 3.12063 0 4.72727V17.0909C0 18.6976 1.27919 20 2.85714 20H17.1429C18.7208 20 20 18.6976 20 17.0909V4.72727C20 3.12063 18.7208 1.81818 17.1429 1.81818H15V1.09091C15 0.488417 14.5203 0 13.9286 0C13.3368 0 12.8571 0.488417 12.8571 1.09091V1.81818H7.14286V1.09091C7.14286 0.488417 6.66316 0 6.07143 0ZM18.2143 7.63636V4.72727C18.2143 4.12478 17.7346 3.63636 17.1429 3.63636H15V4C15 4.60249 14.5203 5.09091 13.9286 5.09091C13.3368 5.09091 12.8571 4.60249 12.8571 4V3.63636H7.14286V4C7.14286 4.60249 6.66316 5.09091 6.07143 5.09091C5.47969 5.09091 5 4.60249 5 4V3.63636H2.85714C2.26541 3.63636 1.78571 4.12478 1.78571 4.72727V7.63636H18.2143ZM1.78571 9.28571H18.2143V17.0909C18.2143 17.6934 17.7346 18.1818 17.1429 18.1818H2.85714C2.26541 18.1818 1.78571 17.6934 1.78571 17.0909V9.28571Z" fill="#616161"/>
</svg>
