<svg width="24" height="24" viewBox="0 0 24 24" fill="none" xmlns="http://www.w3.org/2000/svg">
<path fill-rule="evenodd" clip-rule="evenodd" d="M14.6731 15.9837C13.544 16.9302 12.0885 17.5 10.5 17.5C6.91015 17.5 4 14.5899 4 11C4 7.41015 6.91015 4.5 10.5 4.5C14.0899 4.5 17 7.41015 17 11C17 12.2784 16.631 13.4706 15.9936 14.4758L18.5481 17.0303C18.9386 17.4209 18.9386 18.054 18.5481 18.4445C18.1576 18.8351 17.5244 18.8351 17.1339 18.4445L14.6731 15.9837ZM15 11C15 13.4853 12.9853 15.5 10.5 15.5C8.01472 15.5 6 13.4853 6 11C6 8.51472 8.01472 6.5 10.5 6.5C12.9853 6.5 15 8.51472 15 11Z" fill="#616161"/>
</svg>
