<?xml version="1.0" standalone="no"?>
<!DOCTYPE svg PUBLIC "-//W3C//DTD SVG 20010904//EN"
 "http://www.w3.org/TR/2001/REC-SVG-20010904/DTD/svg10.dtd">
<svg version="1.0" xmlns="http://www.w3.org/2000/svg"
 width="260.000000pt" height="260.000000pt" viewBox="0 0 260.000000 260.000000"
 preserveAspectRatio="xMidYMid meet">
<metadata>
Created by potrace 1.14, written by Peter Selinger 2001-2017
</metadata>
<g transform="translate(0.000000,260.000000) scale(0.100000,-0.100000)"
fill="#000000" stroke="none">
<path d="M1150 2593 c-14 -2 -61 -11 -105 -20 -535 -105 -953 -545 -1032
-1088 -10 -66 -10 -284 -1 -360 4 -33 15 -87 23 -120 9 -33 17 -67 19 -75 1
-8 6 -24 10 -35 4 -11 22 -55 38 -98 56 -144 169 -309 294 -429 204 -195 430
-308 716 -356 84 -14 348 -7 438 12 268 57 491 177 672 362 200 205 317 435
363 719 13 79 13 328 1 390 -4 17 -11 55 -17 85 -26 130 -96 300 -176 422
-201 311 -517 518 -893 585 -34 6 -319 11 -350 6z"/>
</g>
</svg>
