<svg width="56" height="56" viewBox="0 0 56 56" fill="none" xmlns="http://www.w3.org/2000/svg">
<path d="M56 28C56 43.464 43.464 56 28 56C12.536 56 0 43.464 0 28C0 12.536 12.536 0 28 0C43.464 0 56 12.536 56 28Z" fill="#B6B6B6"/>
<path d="M42.2129 38.905C42.0576 38.4061 41.8602 37.9213 41.6228 37.4559C40.8882 35.958 39.892 34.6032 38.6811 33.4555C35.7928 30.7119 31.9613 29.1821 27.9775 29.1821C23.9938 29.1821 20.1622 30.7119 17.274 33.4555C16.0692 34.6046 15.0789 35.9592 14.3497 37.4559C14.1148 37.9214 13.9202 38.4062 13.7682 38.905C13.6929 39.2285 13.6945 39.5652 13.7728 39.888C13.8511 40.2108 14.0038 40.5108 14.2189 40.7639C14.4341 41.017 14.7056 41.2162 15.0116 41.3454C15.3176 41.4747 15.6496 41.5304 15.981 41.5082H40.0001C40.3315 41.5304 40.6635 41.4747 40.9695 41.3454C41.2755 41.2162 41.5469 41.017 41.7621 40.7639C41.9772 40.5108 42.1301 40.2108 42.2083 39.888C42.2866 39.5652 42.2882 39.2285 42.2129 38.905Z" fill="white"/>
<path d="M28.1193 27.1814C29.6345 27.2038 31.1221 26.7748 32.3928 25.9491C33.6635 25.1234 34.6598 23.9382 35.2548 22.5445C35.8499 21.1508 36.0169 19.6115 35.7344 18.1227C35.4519 16.6338 34.7328 15.2627 33.6686 14.1838C32.6044 13.1048 31.2433 12.3669 29.7585 12.064C28.2736 11.7611 26.7322 11.9069 25.3304 12.4827C23.9287 13.0585 22.7299 14.0384 21.8868 15.2976C21.0437 16.5568 20.5943 18.0385 20.5959 19.5539C20.589 20.5487 20.7781 21.5352 21.1525 22.4569C21.5269 23.3786 22.0792 24.2176 22.7778 24.9258C23.4765 25.6341 24.3077 26.1978 25.2242 26.5848C26.1407 26.9719 27.1244 27.1746 28.1193 27.1814Z" fill="white"/>
</svg>
